<svg width="25" height="25" viewBox="0 0 25 25" xmlns="http://www.w3.org/2000/svg">
    <path
        d="M16.5 12.75C16.5 12.4185 16.6317 12.1005 16.8661 11.8661C17.1005 11.6317 17.4185 11.5 17.75 11.5C18.0815 11.5 18.3995 11.6317 18.6339 11.8661C18.8683 12.1005 19 12.4185 19 12.75C19 13.0815 18.8683 13.3995 18.6339 13.6339C18.3995 13.8683 18.0815 14 17.75 14C17.4185 14 17.1005 13.8683 16.8661 13.6339C16.6317 13.3995 16.5 13.0815 16.5 12.75ZM11.5 12.75C11.5 12.4185 11.6317 12.1005 11.8661 11.8661C12.1005 11.6317 12.4185 11.5 12.75 11.5C13.0815 11.5 13.3995 11.6317 13.6339 11.8661C13.8683 12.1005 14 12.4185 14 12.75C14 13.0815 13.8683 13.3995 13.6339 13.6339C13.3995 13.8683 13.0815 14 12.75 14C12.4185 14 12.1005 13.8683 11.8661 13.6339C11.6317 13.3995 11.5 13.0815 11.5 12.75ZM6.5 12.75C6.5 12.4185 6.6317 12.1005 6.86612 11.8661C7.10054 11.6317 7.41848 11.5 7.75 11.5C8.08152 11.5 8.39946 11.6317 8.63388 11.8661C8.8683 12.1005 9 12.4185 9 12.75C9 13.0815 8.8683 13.3995 8.63388 13.6339C8.39946 13.8683 8.08152 14 7.75 14C7.41848 14 7.10054 13.8683 6.86612 13.6339C6.6317 13.3995 6.5 13.0815 6.5 12.75Z" />
</svg>