<svg width="24" height="24" viewBox="0 0 24 24" fill="none" xmlns="http://www.w3.org/2000/svg">
    <path
        d="M22 12.0003C21.9999 12.1859 21.9481 12.3679 21.8504 12.5258C21.7528 12.6837 21.6131 12.8113 21.447 12.8943L3.447 21.8943C3.27807 21.9786 3.08874 22.0133 2.9009 21.9945C2.71305 21.9757 2.53438 21.9041 2.38552 21.7879C2.23667 21.6718 2.12372 21.516 2.05975 21.3383C1.99577 21.1607 1.98338 20.9686 2.024 20.7843L3.976 12.0003L2.024 3.21728C1.98314 3.03285 1.99535 2.84061 2.05923 2.66284C2.12311 2.48506 2.23603 2.32901 2.38493 2.21276C2.53383 2.09651 2.71261 2.02481 2.90057 2.00596C3.08853 1.98712 3.27799 2.0219 3.447 2.10628L21.447 11.1063C21.6131 11.1893 21.7528 11.3169 21.8504 11.4748C21.9481 11.6327 21.9999 11.8146 22 12.0003ZM5.802 13.0003L4.432 19.1663L16.764 13.0003L5.802 13.0003ZM16.764 11.0003L4.432 4.83428L5.802 11.0003L16.764 11.0003Z"
        fill="#C2EC6F" />
</svg>