<svg width="25" height="25" viewBox="0 0 25 25" fill="none" xmlns="http://www.w3.org/2000/svg">
<g clip-path="url(#clip0_2117_24654)">
<path d="M3.5 12.2694C3.5 8.78846 3.5 7.04753 4.5548 5.96661C5.6096 4.88569 7.3061 4.88477 10.7 4.88477H14.3C17.6939 4.88477 19.3913 4.88477 20.4452 5.96661C21.4991 7.04846 21.5 8.78846 21.5 12.2694V14.1155C21.5 17.5965 21.5 19.3374 20.4452 20.4183C19.3904 21.4992 17.6939 21.5002 14.3 21.5002H10.7C7.3061 21.5002 5.6087 21.5001 4.5548 20.4183C3.5009 19.3365 3.5 17.5965 3.5 14.1155V12.2694Z" stroke="#F2F2F2" stroke-width="1.2365"/>
<path d="M7.99922 4.88462V3.5M16.9992 4.88462V3.5M3.94922 9.5H21.0492" stroke="#F2F2F2" stroke-width="1.2365" stroke-linecap="round"/>
<path d="M17.4874 16.8849C17.4874 17.0237 17.4336 17.1548 17.3409 17.2499C17.2486 17.3446 17.1256 17.3958 16.9996 17.3958C16.8736 17.3958 16.7507 17.3446 16.6583 17.2499C16.5656 17.1548 16.5118 17.0237 16.5118 16.8849C16.5118 16.7461 16.5656 16.615 16.6583 16.5199C16.7507 16.4252 16.8736 16.374 16.9996 16.374C17.1256 16.374 17.2486 16.4252 17.3409 16.5199C17.4336 16.615 17.4874 16.7461 17.4874 16.8849ZM17.4874 13.1926C17.4874 13.3314 17.4336 13.4625 17.3409 13.5576C17.2486 13.6523 17.1256 13.7035 16.9996 13.7035C16.8736 13.7035 16.7507 13.6523 16.6583 13.5576C16.5656 13.4625 16.5118 13.3314 16.5118 13.1926C16.5118 13.0538 16.5656 12.9227 16.6583 12.8276C16.7507 12.7329 16.8736 12.6817 16.9996 12.6817C17.1256 12.6817 17.2486 12.7329 17.3409 12.8276C17.4336 12.9227 17.4874 13.0538 17.4874 13.1926ZM12.9874 16.8849C12.9874 17.0237 12.9336 17.1548 12.8409 17.2499C12.7486 17.3446 12.6256 17.3958 12.4996 17.3958C12.3736 17.3958 12.2507 17.3446 12.1583 17.2499C12.0656 17.1548 12.0118 17.0237 12.0118 16.8849C12.0118 16.7461 12.0656 16.615 12.1583 16.5199C12.2507 16.4252 12.3736 16.374 12.4996 16.374C12.6256 16.374 12.7486 16.4252 12.8409 16.5199C12.9336 16.615 12.9874 16.7461 12.9874 16.8849ZM12.9874 13.1926C12.9874 13.3314 12.9336 13.4625 12.8409 13.5576C12.7486 13.6523 12.6256 13.7035 12.4996 13.7035C12.3736 13.7035 12.2507 13.6523 12.1583 13.5576C12.0656 13.4625 12.0118 13.3314 12.0118 13.1926C12.0118 13.0538 12.0656 12.9227 12.1583 12.8276C12.2507 12.7329 12.3736 12.6817 12.4996 12.6817C12.6256 12.6817 12.7486 12.7329 12.8409 12.8276C12.9336 12.9227 12.9874 13.0538 12.9874 13.1926ZM8.48744 16.8849C8.48744 17.0237 8.43358 17.1548 8.34089 17.2499C8.24856 17.3446 8.12558 17.3958 7.99961 17.3958C7.87364 17.3958 7.75066 17.3446 7.65833 17.2499C7.56564 17.1548 7.51178 17.0237 7.51178 16.8849C7.51178 16.7461 7.56564 16.615 7.65833 16.5199C7.75066 16.4252 7.87364 16.374 7.99961 16.374C8.12558 16.374 8.24856 16.4252 8.34089 16.5199C8.43358 16.615 8.48744 16.7461 8.48744 16.8849ZM8.48744 13.1926C8.48744 13.3314 8.43358 13.4625 8.34089 13.5576C8.24856 13.6523 8.12557 13.7035 7.99961 13.7035C7.87364 13.7035 7.75066 13.6523 7.65833 13.5576C7.56564 13.4625 7.51178 13.3314 7.51178 13.1926C7.51178 13.0538 7.56564 12.9227 7.65833 12.8276C7.75066 12.7329 7.87364 12.6817 7.99961 12.6817C8.12557 12.6817 8.24856 12.7329 8.34089 12.8276C8.43358 12.9227 8.48744 13.0538 8.48744 13.1926Z" fill="#6E6E6E" stroke="#F2F2F2" stroke-width="0.824335"/>
</g>
<defs>
<clipPath id="clip0_2117_24654">
<rect x="0.5" y="0.647461" width="24" height="24" rx="4" fill="white"/>
</clipPath>
</defs>
</svg>