<svg width="25" height="25" viewBox="0 0 25 25" fill="none" xmlns="http://www.w3.org/2000/svg">
<path fill-rule="evenodd" clip-rule="evenodd" d="M21.1045 5.93129C21.3577 6.20721 21.5 6.58139 21.5 6.97154C21.5 7.3617 21.3577 7.73588 21.1045 8.0118L10.9803 19.0402C10.8465 19.186 10.6877 19.3016 10.5128 19.3805C10.338 19.4594 10.1506 19.5 9.96141 19.5C9.77217 19.5 9.58479 19.4594 9.40997 19.3805C9.23514 19.3016 9.07629 19.186 8.9425 19.0402L3.91236 13.5618C3.78335 13.4261 3.68045 13.2637 3.60966 13.0842C3.53887 12.9047 3.50161 12.7116 3.50005 12.5162C3.49849 12.3209 3.53267 12.1271 3.60058 11.9463C3.6685 11.7655 3.7688 11.6012 3.89562 11.463C4.02245 11.3249 4.17326 11.2156 4.33926 11.1417C4.50526 11.0677 4.68312 11.0305 4.86247 11.0321C5.04182 11.0338 5.21907 11.0744 5.38386 11.1515C5.54866 11.2287 5.6977 11.3408 5.8223 11.4813L9.96096 15.9896L19.1937 5.93129C19.3191 5.79456 19.4681 5.68609 19.632 5.61209C19.7959 5.53809 19.9716 5.5 20.1491 5.5C20.3266 5.5 20.5023 5.53809 20.6662 5.61209C20.8301 5.68609 20.9791 5.79456 21.1045 5.93129Z" fill="currentColor"/>
</svg>
