<svg width="25" height="25" viewBox="0 0 25 25" fill="none" xmlns="http://www.w3.org/2000/svg">
<path d="M12.5 11.0831L19.1429 4.43588L19.1437 4.4351C19.5264 4.05455 20.1761 4.05579 20.5564 4.43388L20.5573 4.43478C20.7444 4.62228 20.8497 4.87633 20.8499 5.14128C20.85 5.40624 20.7451 5.66042 20.5582 5.84817L20.5577 5.84866L13.9127 12.4962L20.5557 19.1441C20.5561 19.1445 20.5564 19.1448 20.5568 19.1452C20.7467 19.3327 20.8499 19.586 20.85 19.8505M12.5 11.0831L19.8503 20.5M12.5 11.0831L5.85465 4.43403L5.85466 4.43402L5.85295 4.43233C5.47121 4.05559 4.82239 4.05761 4.44275 4.43418L4.44275 4.43417L4.4423 4.43462C4.34887 4.52762 4.2749 4.63829 4.22472 4.7602C4.17468 4.88174 4.14929 5.012 4.15002 5.14343M12.5 11.0831L5.85953 20.5546M20.85 19.8505C20.8503 19.9817 20.8246 20.1117 20.7746 20.233C20.7244 20.3546 20.6507 20.465 20.5577 20.5579C20.4647 20.6509 20.3542 20.7245 20.2326 20.7746C20.1111 20.8248 19.9808 20.8504 19.8493 20.85M20.85 19.8505C20.85 19.8506 20.85 19.8506 20.85 19.8507H20.5L20.85 19.8497C20.85 19.85 20.85 19.8502 20.85 19.8505ZM19.8493 20.85L19.8503 20.5M19.8493 20.85C19.8497 20.85 19.85 20.85 19.8503 20.85V20.5M19.8493 20.85C19.5846 20.8497 19.3334 20.7459 19.1461 20.5597L19.1454 20.5589L12.5 13.9099M19.8503 20.5C19.6776 20.5 19.5148 20.4327 19.3929 20.3115L12.7474 13.6623L12.5 13.9099M12.5 13.9099L5.85953 20.5546M12.5 13.9099L12.2526 13.6623L5.60954 20.3097C5.49381 20.4278 5.32665 20.4957 5.15336 20.4963H5.14969C4.97701 20.4963 4.80985 20.429 4.69167 20.3121L5.85953 20.5546M5.85953 20.5546L5.60957 20.3097L5.85711 20.5571L5.85823 20.556C5.67294 20.7443 5.41484 20.8454 5.1546 20.8463L5.15336 20.8463L5.14969 20.8463C4.88865 20.8463 4.6319 20.7453 4.44555 20.561L4.44447 20.5599C4.25675 20.3726 4.15099 20.1185 4.15046 19.8533C4.14993 19.5881 4.25467 19.3336 4.44164 19.1456L4.44225 19.145L11.0867 12.4956M11.0867 12.4956L11.334 12.743L11.5815 12.4956L11.3339 12.2482L11.0867 12.4956ZM11.0867 12.4956L4.44306 5.84819C4.4428 5.84794 4.44254 5.84768 4.44228 5.84742C4.25369 5.66042 4.15032 5.4084 4.15002 5.14343M4.15002 5.14343C4.15001 5.14304 4.15001 5.14264 4.15001 5.14225H4.50001L4.15002 5.14461C4.15002 5.14421 4.15002 5.14382 4.15002 5.14343Z" fill="#F2F2F2" stroke="#F2F2F2" stroke-width="0.7"/>
</svg>
