<svg width="25" height="25" viewBox="0 0 25 25" fill="currentColor" xmlns="http://www.w3.org/2000/svg">
<path d="M12.5 15.5C14.1569 15.5 15.5 14.1569 15.5 12.5C15.5 10.8431 14.1569 9.5 12.5 9.5C10.8431 9.5 9.5 10.8431 9.5 12.5C9.5 14.1569 10.8431 15.5 12.5 15.5Z" fill="currentColor"/>
<path d="M23.5081 11.6844C22.2678 9.76625 20.6586 8.13688 18.8548 6.97203C16.8593 5.68203 14.6562 5 12.484 5C10.4909 5 8.53105 5.56953 6.65886 6.69266C4.74965 7.83781 3.01996 9.51078 1.51761 11.6647C1.34801 11.9081 1.25461 12.1965 1.24927 12.4931C1.24392 12.7897 1.32689 13.0813 1.48761 13.3306C2.72558 15.268 4.31886 16.8997 6.09449 18.0486C8.09371 19.3438 10.2453 20 12.484 20C14.6736 20 16.8814 19.3236 18.8684 18.0444C20.6712 16.8833 22.2771 15.2478 23.5128 13.3137C23.668 13.0702 23.75 12.7872 23.7492 12.4984C23.7483 12.2096 23.6647 11.9271 23.5081 11.6844ZM12.5 17C11.6099 17 10.7399 16.7361 9.99989 16.2416C9.25987 15.7471 8.68309 15.0443 8.3425 14.2221C8.00191 13.3998 7.91279 12.495 8.08642 11.6221C8.26006 10.7492 8.68864 9.94736 9.31798 9.31802C9.94731 8.68868 10.7491 8.2601 11.6221 8.08647C12.495 7.91283 13.3998 8.00195 14.222 8.34254C15.0443 8.68314 15.7471 9.25991 16.2416 9.99993C16.736 10.74 17 11.61 17 12.5C16.9986 13.6931 16.524 14.8369 15.6804 15.6805C14.8368 16.5241 13.693 16.9986 12.5 17Z" fill="currentColor"/>
</svg>
