<svg width="25" height="25" viewBox="0 0 25 25" fill="none" xmlns="http://www.w3.org/2000/svg">
<g clip-path="url(#clip0_2117_24655)">
<path d="M17.0623 9.75C16.9707 11.0209 16.0279 12 14.9998 12C13.9716 12 13.0273 11.0213 12.9373 9.75C12.8435 8.42781 13.7613 7.5 14.9998 7.5C16.2382 7.5 17.156 8.45187 17.0623 9.75Z" stroke="#F2F2F2" stroke-linecap="round" stroke-linejoin="round"/>
<path d="M14.9999 14C12.9633 14 11.0049 15.0116 10.5143 16.9816C10.4493 17.2422 10.6127 17.5 10.8805 17.5H19.1196C19.3874 17.5 19.5499 17.2422 19.4858 16.9816C18.9952 14.98 17.0368 14 14.9999 14Z" stroke="#F2F2F2" stroke-miterlimit="10"/>
<path d="M10.7503 10.3106C10.6772 11.3256 9.9153 12.125 9.09405 12.125C8.2728 12.125 7.50967 11.3259 7.4378 10.3106C7.36311 9.25469 8.10467 8.5 9.09405 8.5C10.0834 8.5 10.825 9.27406 10.7503 10.3106Z" stroke="#F2F2F2" stroke-linecap="round" stroke-linejoin="round"/>
<path d="M10.9378 14.0624C10.3737 13.804 9.75249 13.7046 9.09406 13.7046C7.46906 13.7046 5.90343 14.5124 5.51124 16.0858C5.45968 16.294 5.59031 16.4999 5.80406 16.4999H9.31281" stroke="#F2F2F2" stroke-miterlimit="10" stroke-linecap="round"/>
</g>
<defs>
<clipPath id="clip0_2117_24655">
<rect x="0.5" y="0.5" width="24" height="24" rx="4" fill="white"/>
</clipPath>
</defs>
</svg>
