<svg width="25" height="25" viewBox="0 0 25 25" fill="none" xmlns="http://www.w3.org/2000/svg">
<path d="M10.7682 21.5C10.9438 21.804 11.1963 22.0565 11.5003 22.232C11.8043 22.4075 12.1492 22.4999 12.5002 22.4999C12.8513 22.4999 13.1962 22.4075 13.5002 22.232C13.8042 22.0565 14.0567 21.804 14.2322 21.5M3.76225 15.826C3.63161 15.9692 3.5454 16.1472 3.5141 16.3385C3.4828 16.5298 3.50777 16.726 3.58595 16.9034C3.66414 17.0807 3.79218 17.2316 3.9545 17.3375C4.11682 17.4434 4.30642 17.4999 4.50025 17.5H20.5002C20.694 17.5001 20.8837 17.4438 21.0461 17.3381C21.2085 17.2324 21.3367 17.0817 21.4151 16.9045C21.4935 16.7273 21.5187 16.5311 21.4877 16.3398C21.4566 16.1485 21.3707 15.9703 21.2402 15.827C19.9102 14.456 18.5002 12.999 18.5002 8.5C18.5002 6.9087 17.8681 5.38258 16.7429 4.25736C15.6177 3.13214 14.0915 2.5 12.5002 2.5C10.9089 2.5 9.38282 3.13214 8.25761 4.25736C7.13239 5.38258 6.50025 6.9087 6.50025 8.5C6.50025 12.999 5.08925 14.456 3.76225 15.826Z" stroke="#F2F2F2" stroke-width="2" stroke-linecap="round" stroke-linejoin="round"/>
</svg>
