<svg width="27" height="27" viewBox="0 0 27 27" fill="none" xmlns="http://www.w3.org/2000/svg">
<path d="M13.5 23.5C14.8135 23.5017 16.1143 23.2438 17.3278 22.7412C18.5413 22.2385 19.6435 21.501 20.571 20.571C21.501 19.6435 22.2385 18.5413 22.7412 17.3278C23.2438 16.1143 23.5017 14.8135 23.5 13.5C23.5017 12.1865 23.2438 10.8857 22.7411 9.67222C22.2385 8.45875 21.501 7.35656 20.571 6.42901C19.6435 5.49902 18.5413 4.76151 17.3278 4.25885C16.1143 3.75619 14.8135 3.49831 13.5 3.50001C12.1865 3.49833 10.8857 3.75623 9.67222 4.25889C8.45875 4.76154 7.35656 5.49904 6.42901 6.42901C5.49904 7.35656 4.76154 8.45875 4.25889 9.67222C3.75623 10.8857 3.49833 12.1865 3.50001 13.5C3.49831 14.8135 3.75619 16.1143 4.25885 17.3278C4.76151 18.5413 5.49902 19.6435 6.42901 20.571C7.35656 21.501 8.45875 22.2385 9.67222 22.7411C10.8857 23.2438 12.1865 23.5017 13.5 23.5Z" fill="#C2EC6F" stroke="#C2EC6F" stroke-width="2" stroke-linejoin="round"/>
<path d="M9.5 13.5L12.5 16.5L18.5 10.5" fill="#C2EC6F"/>
<path d="M9.5 13.5L12.5 16.5L18.5 10.5" stroke="#191919" stroke-width="2" stroke-linecap="round" stroke-linejoin="round"/>
</svg>
