<svg width="25" height="25" viewBox="0 0 25 25" fill="none" xmlns="http://www.w3.org/2000/svg">
<path d="M12.5 22.5C13.8135 22.5017 15.1143 22.2438 16.3278 21.7412C17.5413 21.2385 18.6435 20.501 19.571 19.571C20.501 18.6435 21.2385 17.5413 21.7412 16.3278C22.2438 15.1143 22.5017 13.8135 22.5 12.5C22.5017 11.1865 22.2438 9.8857 21.7411 8.67222C21.2385 7.45875 20.501 6.35656 19.571 5.42901C18.6435 4.49902 17.5413 3.76151 16.3278 3.25885C15.1143 2.75619 13.8135 2.49831 12.5 2.50001C11.1865 2.49833 9.8857 2.75623 8.67222 3.25889C7.45875 3.76154 6.35656 4.49904 5.42901 5.42901C4.49904 6.35656 3.76154 7.45875 3.25889 8.67222C2.75623 9.8857 2.49833 11.1865 2.50001 12.5C2.49831 13.8135 2.75619 15.1143 3.25885 16.3278C3.76151 17.5413 4.49902 18.6435 5.42901 19.571C6.35656 20.501 7.45875 21.2385 8.67222 21.7411C9.8857 22.2438 11.1865 22.5017 12.5 22.5Z" fill="#C2EC6F" stroke="#C2EC6F" stroke-width="2" stroke-linejoin="round"/>
<path d="M8.5 12.5L11.5 15.5L17.5 9.5" fill="#C2EC6F"/>
<path d="M8.5 12.5L11.5 15.5L17.5 9.5" stroke="#191919" stroke-width="2" stroke-linecap="round" stroke-linejoin="round"/>
</svg>
