<svg width="33" height="33" viewBox="0 0 33 33" fill="none" xmlns="http://www.w3.org/2000/svg">
  <path d="M27.4054 14.7806C27.1176 15.4691 26.6966 16.094 26.1666 16.6194L26.1635 16.6225L16.7368 26.0505L16.7364 26.0509C16.7055 26.0818 16.6687 26.1064 16.6283 26.1232C16.5878 26.14 16.5444 26.1486 16.5006 26.1486C16.4568 26.1486 16.4134 26.14 16.373 26.1232C16.3325 26.1064 16.2957 26.0818 16.2648 26.0509L16.2644 26.0505L6.83639 16.6225L6.83645 16.6224L6.82733 16.6135C6.29014 16.0898 5.86228 15.4647 5.56856 14.7744C5.27485 14.0841 5.12113 13.3423 5.11633 12.5921C5.11152 11.8419 5.25572 11.0983 5.54056 10.4043C5.82541 9.71023 6.24522 9.07968 6.77566 8.54917C7.30609 8.01866 7.93658 7.59876 8.63056 7.31382C9.32455 7.02888 10.0682 6.88457 10.8184 6.88927C11.5686 6.89397 12.3104 7.04759 13.0007 7.3412C13.6911 7.63481 14.3162 8.06259 14.84 8.5997L15.5468 9.32455L15.5566 9.31475L15.7923 9.55083L16.4995 10.2589L17.2071 9.55133L18.1497 8.60867L18.1528 8.60556C18.6782 8.07558 19.303 7.65459 19.9915 7.36675C20.68 7.07891 21.4186 6.9299 22.1649 6.92826C22.9111 6.92663 23.6503 7.07241 24.3401 7.35723C25.0298 7.64205 25.6565 8.0603 26.1842 8.58798C26.7119 9.11565 27.1301 9.74236 27.415 10.4321C27.6998 11.1219 27.8456 11.8611 27.8439 12.6073C27.8423 13.3536 27.6933 14.0921 27.4054 14.7806Z" fill="#C2EC6F" stroke="#C2EC6F" stroke-width="2"/>
</svg>