<svg width="25" height="25" viewBox="0 0 25 25" fill="currentColor" xmlns="http://www.w3.org/2000/svg">
    <path
        d="M7.1 20.5C6.845 20.5 6.6314 20.4147 6.4592 20.244C6.287 20.0733 6.2006 19.8624 6.2 19.6111C6.1994 19.3598 6.2858 19.1489 6.4592 18.9782C6.6326 18.8075 6.8462 18.7222 7.1 18.7222H17.9C18.155 18.7222 18.3689 18.8075 18.5417 18.9782C18.7145 19.1489 18.8006 19.3598 18.8 19.6111C18.7994 19.8624 18.713 20.0736 18.5408 20.2449C18.3686 20.4161 18.155 20.5012 17.9 20.5H7.1ZM7.73 17.3889C7.295 17.3889 6.9089 17.2481 6.5717 16.9667C6.2345 16.6852 6.0281 16.3296 5.9525 15.9L5.0525 10.2556C5.0225 10.2556 4.9889 10.2594 4.9517 10.2671C4.9145 10.2748 4.8806 10.2784 4.85 10.2778C4.475 10.2778 4.1564 10.1483 3.8942 9.88933C3.632 9.63037 3.5006 9.31541 3.5 8.94444C3.4994 8.57348 3.6308 8.25881 3.8942 8.00044C4.1576 7.74207 4.4762 7.6123 4.85 7.61111C5.2238 7.60993 5.5427 7.7397 5.8067 8.00044C6.0707 8.26118 6.2018 8.57585 6.2 8.94444C6.2 9.04815 6.1886 9.14444 6.1658 9.23333C6.143 9.32222 6.1169 9.4037 6.0875 9.47778L8.9 10.7222L11.7125 6.92222C11.5475 6.8037 11.4125 6.64815 11.3075 6.45556C11.2025 6.26296 11.15 6.05556 11.15 5.83333C11.15 5.46296 11.2814 5.148 11.5442 4.88845C11.807 4.62889 12.1256 4.49941 12.5 4.5C12.8744 4.50059 13.1933 4.63037 13.4567 4.88933C13.7201 5.1483 13.8512 5.46296 13.85 5.83333C13.85 6.05556 13.7975 6.26296 13.6925 6.45556C13.5875 6.64815 13.4525 6.8037 13.2875 6.92222L16.1 10.7222L18.9125 9.47778C18.8825 9.4037 18.8561 9.32222 18.8333 9.23333C18.8105 9.14444 18.7994 9.04815 18.8 8.94444C18.8 8.57407 18.9314 8.25911 19.1942 7.99955C19.457 7.74 19.7756 7.61052 20.15 7.61111C20.5244 7.6117 20.8433 7.74148 21.1067 8.00044C21.3701 8.25941 21.5012 8.57407 21.5 8.94444C21.4988 9.31481 21.3677 9.62978 21.1067 9.88933C20.8457 10.1489 20.5268 10.2784 20.15 10.2778C20.12 10.2778 20.0864 10.2742 20.0492 10.2671C20.012 10.26 19.9781 10.2561 19.9475 10.2556L19.0475 15.9C18.9725 16.3296 18.7664 16.6852 18.4292 16.9667C18.092 17.2481 17.7056 17.3889 17.27 17.3889H7.73ZM7.73 15.6111H17.27L17.855 11.9L16.82 12.3444C16.43 12.5074 16.0325 12.537 15.6275 12.4333C15.2225 12.3296 14.8925 12.1074 14.6375 11.7667L12.5 8.85555L10.3625 11.7667C10.1075 12.1074 9.7775 12.3296 9.3725 12.4333C8.9675 12.537 8.57 12.5074 8.18 12.3444L7.145 11.9L7.73 15.6111Z"
        fill="currentColor" stroke="transparent" />
</svg>