<svg width="25" height="25" viewBox="0 0 25 25" fill="currentColor" xmlns="http://www.w3.org/2000/svg">
  <path d="M19.1429 4.43588L12.5 11.0831L5.85465 4.43403C5.47121 4.05559 4.82239 4.05761 4.44275 4.43418C4.25467 4.62168 4.15 4.87573 4.15 5.14068C4.15 5.40564 4.25489 5.65982 4.44197 5.84757L11.0867 12.4956L4.44164 19.1456C4.25467 19.3336 4.14993 19.5881 4.15046 19.8533C4.15099 20.1185 4.25675 20.3726 4.44447 20.5599C4.6319 20.7453 4.88865 20.8463 5.14969 20.8463C5.41073 20.8463 5.66748 20.7453 5.85383 20.561L12.5 13.9099L19.1461 20.5597C19.3334 20.7459 19.5846 20.8497 19.8493 20.85C20.1139 20.8503 20.3654 20.7471 20.5532 20.5615C20.741 20.376 20.8467 20.1258 20.849 19.8612C20.8513 19.5966 20.7501 19.3445 20.5557 19.1441L13.9127 12.4962L20.5582 5.84817C20.7451 5.66042 20.85 5.40624 20.8499 5.14128C20.8497 4.87633 20.7444 4.62228 20.5573 4.43478C20.1761 4.05579 19.5264 4.05455 19.1429 4.43588Z" 
    fill="currentColor" stroke="currentColor" stroke-width="0.7"/>
</svg>