<svg width="25" height="25" viewBox="0 0 25 25" fill="none" xmlns="http://www.w3.org/2000/svg">
<path d="M12.9995 20.5H21.5M17.1326 5.08517C17.5086 4.71049 18.0186 4.5 18.5503 4.5C19.0821 4.5 19.592 4.71049 19.968 5.08517C20.344 5.45985 20.5553 5.96802 20.5553 6.4979C20.5553 7.02777 20.344 7.53595 19.968 7.91063L8.62462 19.2153C8.39992 19.4392 8.12217 19.603 7.81707 19.6915L5.10448 20.4802C5.02321 20.5039 4.93706 20.5053 4.85505 20.4843C4.77304 20.4634 4.69818 20.4209 4.63832 20.3612C4.57846 20.3016 4.53579 20.227 4.51477 20.1453C4.49376 20.0635 4.49519 19.9777 4.51889 19.8967L5.31038 17.1936C5.39937 16.8899 5.56374 16.6135 5.78829 16.3898L17.1326 5.08517Z" stroke="#F2F2F2" stroke-width="2" stroke-linecap="round" stroke-linejoin="round"/>
</svg>
