<svg width="25" height="25" viewBox="0 0 25 25" fill="currentColor" xmlns="http://www.w3.org/2000/svg">
    <path
        d="M6.3374 3.5H14.6057C15.093 3.5 15.5603 3.67911 15.9049 3.99792C16.2495 4.31673 16.4431 4.74913 16.4431 5.2V6.05C16.4431 6.27543 16.3463 6.49163 16.174 6.65104C16.0017 6.81045 15.768 6.9 15.5244 6.9C15.2807 6.9 15.0471 6.81045 14.8748 6.65104C14.7025 6.49163 14.6057 6.27543 14.6057 6.05V5.2H6.3374V18.8H14.6057V17.95C14.6057 17.7246 14.7025 17.5084 14.8748 17.349C15.0471 17.1896 15.2807 17.1 15.5244 17.1C15.768 17.1 16.0017 17.1896 16.174 17.349C16.3463 17.5084 16.4431 17.7246 16.4431 17.95V18.8C16.4431 19.2509 16.2495 19.6833 15.9049 20.0021C15.5603 20.3209 15.093 20.5 14.6057 20.5H6.3374C5.85009 20.5 5.38274 20.3209 5.03816 20.0021C4.69358 19.6833 4.5 19.2509 4.5 18.8V5.2C4.5 4.74913 4.69358 4.31673 5.03816 3.99792C5.38274 3.67911 5.85009 3.5 6.3374 3.5Z"
        fill="currentColor" stroke="transparent" />
    <path
        d="M17.2343 16.5785C17.6225 16.9469 18.2495 16.9469 18.6376 16.5785L22.2086 13.1899C22.3952 13.0128 22.5 12.7726 22.5 12.5221C22.5 12.2717 22.3952 12.0315 22.2086 11.8544L18.6376 8.46576C18.4484 8.30349 18.2008 8.21642 17.9458 8.22252C17.6909 8.22863 17.4482 8.32745 17.2679 8.49857C17.0876 8.66968 16.9834 8.9 16.977 9.14191C16.9706 9.38383 17.0623 9.61884 17.2333 9.79837L19.1004 11.5777H10.4715C10.2076 11.5777 9.95443 11.6772 9.76779 11.8543C9.58114 12.0314 9.47628 12.2717 9.47628 12.5221C9.47628 12.7726 9.58114 13.0129 9.76779 13.19C9.95443 13.3671 10.2076 13.4666 10.4715 13.4666H19.1004L17.2333 15.2459C17.0478 15.423 16.9437 15.6627 16.9439 15.9124C16.9441 16.1622 17.0485 16.4017 17.2343 16.5785Z"
        fill="currentColor" stroke="transparent" />
</svg>