<svg width="25" height="25" viewBox="0 0 25 25" fill="none" xmlns="http://www.w3.org/2000/svg">
<g clip-path="url(#clip0_2117_24691)">
<path d="M8 5.3C8 4.82261 8.18964 4.36477 8.52721 4.02721C8.86477 3.68964 9.32261 3.5 9.8 3.5H15.2C15.6774 3.5 16.1352 3.68964 16.4728 4.02721C16.8104 4.36477 17 4.82261 17 5.3V7.1H20.6C20.8387 7.1 21.0676 7.19482 21.2364 7.3636C21.4052 7.53239 21.5 7.76131 21.5 8C21.5 8.23869 21.4052 8.46761 21.2364 8.6364C21.0676 8.80518 20.8387 8.9 20.6 8.9H19.6379L18.8576 19.8278C18.8253 20.2819 18.6221 20.7069 18.2889 21.0172C17.9557 21.3275 17.5174 21.5 17.0621 21.5H7.937C7.48173 21.5 7.04336 21.3275 6.7102 21.0172C6.37703 20.7069 6.17382 20.2819 6.1415 19.8278L5.363 8.9H4.4C4.16131 8.9 3.93239 8.80518 3.7636 8.6364C3.59482 8.46761 3.5 8.23869 3.5 8C3.5 7.76131 3.59482 7.53239 3.7636 7.3636C3.93239 7.19482 4.16131 7.1 4.4 7.1H8V5.3ZM9.8 7.1H15.2V5.3H9.8V7.1ZM7.1666 8.9L7.9379 19.7H17.063L17.8343 8.9H7.1666ZM10.7 10.7C10.9387 10.7 11.1676 10.7948 11.3364 10.9636C11.5052 11.1324 11.6 11.3613 11.6 11.6V17C11.6 17.2387 11.5052 17.4676 11.3364 17.6364C11.1676 17.8052 10.9387 17.9 10.7 17.9C10.4613 17.9 10.2324 17.8052 10.0636 17.6364C9.89482 17.4676 9.8 17.2387 9.8 17V11.6C9.8 11.3613 9.89482 11.1324 10.0636 10.9636C10.2324 10.7948 10.4613 10.7 10.7 10.7ZM14.3 10.7C14.5387 10.7 14.7676 10.7948 14.9364 10.9636C15.1052 11.1324 15.2 11.3613 15.2 11.6V17C15.2 17.2387 15.1052 17.4676 14.9364 17.6364C14.7676 17.8052 14.5387 17.9 14.3 17.9C14.0613 17.9 13.8324 17.8052 13.6636 17.6364C13.4948 17.4676 13.4 17.2387 13.4 17V11.6C13.4 11.3613 13.4948 11.1324 13.6636 10.9636C13.8324 10.7948 14.0613 10.7 14.3 10.7Z" fill="#C6C6C6"/>
</g>
<defs>
<clipPath id="clip0_2117_24691">
<rect width="24" height="24" fill="white" transform="translate(0.5 0.5)"/>
</clipPath>
</defs>
</svg>
